HIERARCHY
ROOT Hips
{
	OFFSET 0.000000 97.167313 0.000000
	CHANNELS 6 Xposition Yposition Zposition Xrotation Yrotation Zrotation
	JOINT Spine
	{
		OFFSET 0.000000 13.784798 0.064400
		CHANNELS 3 Xrotation Yrotation Zrotation
		JOINT Spine1
		{
			OFFSET 0.000000 12.037903 0.404700
			CHANNELS 3 Xrotation Yrotation Zrotation
			JOINT Spine2
			{
				OFFSET 0.000000 17.795601 0.420200
				CHANNELS 3 Xrotation Yrotation Zrotation
				JOINT Neck
				{
					OFFSET 0.000000 39.131302 11.954600
					CHANNELS 3 Xrotation Yrotation Zrotation
					JOINT Head
					{
						OFFSET 0.000000 14.456192 15.627699
						CHANNELS 3 Xrotation Yrotation Zrotation
						JOINT HeadTop_End
						{
							OFFSET 0.000000 15.703506 7.603401
							CHANNELS 3 Xrotation Yrotation Zrotation
							End Site
							{
								OFFSET 0.000000 17.447403 0.000000
							}
						}
					}
				}
				JOINT LeftShoulder
				{
					OFFSET 17.399500 24.608795 1.168800
					CHANNELS 3 Xrotation Yrotation Zrotation
					JOINT LeftArm
					{
						OFFSET 18.980635 5.765305 1.818600
						CHANNELS 3 Xrotation Yrotation Zrotation
						JOINT LeftForeArm
						{
							OFFSET 49.290169 0.000000 0.000000
							CHANNELS 3 Xrotation Yrotation Zrotation
							JOINT LeftHand
							{
								OFFSET 31.562012 0.000000 0.000000
								CHANNELS 3 Xrotation Yrotation Zrotation
								JOINT LeftHandThumb1
								{
									OFFSET 6.133995 -4.388519 7.076070
									CHANNELS 3 Xrotation Yrotation Zrotation
									JOINT LeftHandThumb2
									{
										OFFSET 6.037666 -3.485840 3.485847
										CHANNELS 3 Xrotation Yrotation Zrotation
										JOINT LeftHandThumb3
										{
											OFFSET 6.496506 -3.750763 3.750761
											CHANNELS 3 Xrotation Yrotation Zrotation
											JOINT LeftHandThumb4
											{
												OFFSET 5.616882 -3.242905 3.242910
												CHANNELS 3 Xrotation Yrotation Zrotation
												End Site
												{
													OFFSET -1.254608 7.132141 0.375429
												}
											}
										}
									}
								}
								JOINT LeftHandPinky1
								{
									OFFSET 18.920792 -0.453171 -11.426712
									CHANNELS 3 Xrotation Yrotation Zrotation
									JOINT LeftHandPinky2
									{
										OFFSET 4.919586 0.000000 0.000000
										CHANNELS 3 Xrotation Yrotation Zrotation
										JOINT LeftHandPinky3
										{
											OFFSET 5.233047 0.000000 0.000000
											CHANNELS 3 Xrotation Yrotation Zrotation
											JOINT LeftHandPinky4
											{
												OFFSET 5.571716 0.000000 0.000000
												CHANNELS 3 Xrotation Yrotation Zrotation
												End Site
												{
													OFFSET -3.459808 4.342407 -0.466164
												}
											}
										}
									}
								}
								JOINT LeftHandRing1
								{
									OFFSET 22.726120 -0.094986 -6.500475
									CHANNELS 3 Xrotation Yrotation Zrotation
									JOINT LeftHandRing2
									{
										OFFSET 6.408615 0.000000 0.000000
										CHANNELS 3 Xrotation Yrotation Zrotation
										JOINT LeftHandRing3
										{
											OFFSET 6.150223 0.000000 0.000000
											CHANNELS 3 Xrotation Yrotation Zrotation
											JOINT LeftHandRing4
											{
												OFFSET 6.145386 0.000000 0.000000
												CHANNELS 3 Xrotation Yrotation Zrotation
												End Site
												{
													OFFSET -3.671402 4.923981 -0.202372
												}
											}
										}
									}
								}
								JOINT LeftHandMiddle1
								{
									OFFSET 23.373947 0.000000 0.000001
									CHANNELS 3 Xrotation Yrotation Zrotation
									JOINT LeftHandMiddle2
									{
										OFFSET 6.996567 0.000000 0.000000
										CHANNELS 3 Xrotation Yrotation Zrotation
										JOINT LeftHandMiddle3
										{
											OFFSET 7.015945 0.000000 0.000000
											CHANNELS 3 Xrotation Yrotation Zrotation
											JOINT LeftHandMiddle4
											{
												OFFSET 7.721573 0.000000 0.000000
												CHANNELS 3 Xrotation Yrotation Zrotation
												End Site
												{
													OFFSET -4.651108 6.158463 0.251582
												}
											}
										}
									}
								}
								JOINT LeftHandIndex1
								{
									OFFSET 21.310577 -0.490082 6.209344
									CHANNELS 3 Xrotation Yrotation Zrotation
									JOINT LeftHandIndex2
									{
										OFFSET 7.536453 0.000000 0.000000
										CHANNELS 3 Xrotation Yrotation Zrotation
										JOINT LeftHandIndex3
										{
											OFFSET 7.512344 0.000000 0.000000
											CHANNELS 3 Xrotation Yrotation Zrotation
											JOINT LeftHandIndex4
											{
												OFFSET 10.212402 0.000000 0.000001
												CHANNELS 3 Xrotation Yrotation Zrotation
												End Site
												{
													OFFSET -5.180801 8.690506 1.388433
												}
											}
										}
									}
								}
							}
						}
					}
				}
				JOINT RightShoulder
				{
					OFFSET -17.399500 24.608795 1.168800
					CHANNELS 3 Xrotation Yrotation Zrotation
					JOINT RightArm
					{
						OFFSET -18.980635 5.765305 1.818600
						CHANNELS 3 Xrotation Yrotation Zrotation
						JOINT RightForeArm
						{
							OFFSET -49.290169 0.000000 0.000000
							CHANNELS 3 Xrotation Yrotation Zrotation
							JOINT RightHand
							{
								OFFSET -31.562012 0.000000 0.000000
								CHANNELS 3 Xrotation Yrotation Zrotation
								JOINT RightHandThumb1
								{
									OFFSET -6.133995 -4.388519 7.076070
									CHANNELS 3 Xrotation Yrotation Zrotation
									JOINT RightHandThumb2
									{
										OFFSET -6.037666 -3.485840 3.485847
										CHANNELS 3 Xrotation Yrotation Zrotation
										JOINT RightHandThumb3
										{
											OFFSET -6.496506 -3.750763 3.750761
											CHANNELS 3 Xrotation Yrotation Zrotation
											JOINT RightHandThumb4
											{
												OFFSET -5.616882 -3.242905 3.242910
												CHANNELS 3 Xrotation Yrotation Zrotation
												End Site
												{
													OFFSET 1.254608 7.132141 0.375429
												}
											}
										}
									}
								}
								JOINT RightHandIndex1
								{
									OFFSET -21.310577 -0.490082 6.209344
									CHANNELS 3 Xrotation Yrotation Zrotation
									JOINT RightHandIndex2
									{
										OFFSET -7.536453 0.000000 0.000000
										CHANNELS 3 Xrotation Yrotation Zrotation
										JOINT RightHandIndex3
										{
											OFFSET -7.512344 0.000000 0.000000
											CHANNELS 3 Xrotation Yrotation Zrotation
											JOINT RightHandIndex4
											{
												OFFSET -10.212402 0.000000 0.000001
												CHANNELS 3 Xrotation Yrotation Zrotation
												End Site
												{
													OFFSET 5.180801 8.690506 1.388433
												}
											}
										}
									}
								}
								JOINT RightHandMiddle1
								{
									OFFSET -23.373947 0.000000 0.000001
									CHANNELS 3 Xrotation Yrotation Zrotation
									JOINT RightHandMiddle2
									{
										OFFSET -6.996567 0.000000 0.000000
										CHANNELS 3 Xrotation Yrotation Zrotation
										JOINT RightHandMiddle3
										{
											OFFSET -7.015945 0.000000 0.000000
											CHANNELS 3 Xrotation Yrotation Zrotation
											JOINT RightHandMiddle4
											{
												OFFSET -7.721573 0.000000 0.000000
												CHANNELS 3 Xrotation Yrotation Zrotation
												End Site
												{
													OFFSET 4.651108 6.158463 0.251582
												}
											}
										}
									}
								}
								JOINT RightHandRing1
								{
									OFFSET -22.726120 -0.094986 -6.500475
									CHANNELS 3 Xrotation Yrotation Zrotation
									JOINT RightHandRing2
									{
										OFFSET -6.408615 0.000000 0.000000
										CHANNELS 3 Xrotation Yrotation Zrotation
										JOINT RightHandRing3
										{
											OFFSET -6.150223 0.000000 0.000000
											CHANNELS 3 Xrotation Yrotation Zrotation
											JOINT RightHandRing4
											{
												OFFSET -6.145386 0.000000 0.000000
												CHANNELS 3 Xrotation Yrotation Zrotation
												End Site
												{
													OFFSET 3.671402 4.923981 -0.202372
												}
											}
										}
									}
								}
								JOINT RightHandPinky1
								{
									OFFSET -18.920792 -0.453171 -11.426712
									CHANNELS 3 Xrotation Yrotation Zrotation
									JOINT RightHandPinky2
									{
										OFFSET -4.919586 0.000000 0.000000
										CHANNELS 3 Xrotation Yrotation Zrotation
										JOINT RightHandPinky3
										{
											OFFSET -5.233047 0.000000 0.000000
											CHANNELS 3 Xrotation Yrotation Zrotation
											JOINT RightHandPinky4
											{
												OFFSET -5.571716 0.000000 0.000000
												CHANNELS 3 Xrotation Yrotation Zrotation
												End Site
												{
													OFFSET 3.459808 4.342407 -0.466164
												}
											}
										}
									}
								}
							}
						}
					}
				}
			}
		}
	}
	JOINT LeftUpLeg
	{
		OFFSET 19.899099 -7.885101 -3.429500
		CHANNELS 3 Xrotation Yrotation Zrotation
		JOINT LeftLeg
		{
			OFFSET 1.745560 -36.997807 10.304700
			CHANNELS 3 Xrotation Yrotation Zrotation
			JOINT LeftFoot
			{
				OFFSET -1.745558 -29.803308 -13.615400
				CHANNELS 3 Xrotation Yrotation Zrotation
				JOINT LeftToeBase
				{
					OFFSET 1.181900 -18.539904 15.226099
					CHANNELS 3 Xrotation Yrotation Zrotation
					JOINT LeftToe_End
					{
						OFFSET -0.863701 1.402801 16.534700
						CHANNELS 3 Xrotation Yrotation Zrotation
						End Site
						{
							OFFSET 0.000000 16.616566 0.000000
						}
					}
				}
			}
		}
	}
	JOINT RightUpLeg
	{
		OFFSET -19.899099 -7.885101 -3.429500
		CHANNELS 3 Xrotation Yrotation Zrotation
		JOINT RightLeg
		{
			OFFSET -1.745560 -36.997807 10.304700
			CHANNELS 3 Xrotation Yrotation Zrotation
			JOINT RightFoot
			{
				OFFSET 1.745558 -29.803308 -13.615400
				CHANNELS 3 Xrotation Yrotation Zrotation
				JOINT RightToeBase
				{
					OFFSET -1.181900 -18.539904 15.226099
					CHANNELS 3 Xrotation Yrotation Zrotation
					JOINT RightToe_End
					{
						OFFSET 0.863701 1.402801 16.534700
						CHANNELS 3 Xrotation Yrotation Zrotation
						End Site
						{
							OFFSET 0.000000 16.616566 0.000000
						}
					}
				}
			}
		}
	}
}
MOTION
Frames: 6
Frame Time: 0.033333
0.616427 95.196228 2.625691 -3.739271 -3.167504 -3.116401 3.313482 1.518415 2.193987 1.153400 0.327385 1.535154 1.131136 0.353874 1.533201 5.622649 -0.077178 0.463894 -7.551130 1.374735 -0.084347 0.000000 0.000000 -0.000000 -4.421034 0.243557 -8.337253 5.764454 -19.352397 -70.034984 0.083607 -5.035382 1.948599 -27.029068 2.354014 -9.530922 -3.943261 -0.423090 7.054552 4.097602 11.193080 13.892396 -4.854779 3.610433 -6.254034 -0.000000 -0.000000 -0.000002 0.178077 0.508141 -24.139381 -0.002972 -0.019588 -17.491472 -0.002680 -0.018605 -16.587227 0.000002 -0.000000 -0.000004 -0.277923 -0.864172 -18.030586 -0.498553 -1.167857 -25.698182 -0.052471 1.225277 -13.271916 -0.000001 -0.000001 0.000005 0.739784 3.409456 -12.080549 -0.023138 -4.852851 -17.962609 0.482682 1.564434 -15.591123 0.000001 -0.000000 0.000008 0.531634 0.302945 -6.051434 0.000462 -4.402973 -17.462878 0.259202 1.929629 -7.225698 -0.000001 -0.000000 0.000001 -10.255629 -6.455316 7.226222 13.216452 24.012918 65.944834 0.166724 10.271265 -1.961125 -15.136997 -4.158019 9.991571 -12.819938 3.690367 -0.882193 5.030845 -17.844052 -13.286220 -7.513459 1.890939 2.454138 -0.000002 0.000001 -0.000000 0.530937 -0.296278 6.060723 0.000406 4.402215 17.467985 0.259593 -1.931652 7.229173 -0.000000 -0.000001 0.000006 0.741118 -3.415398 12.081126 -0.023006 4.853313 17.961721 0.482801 -1.564763 15.592803 0.000001 0.000000 -0.000004 -0.278516 0.865423 18.041888 -0.498412 1.167340 25.700904 -0.052458 -1.224767 13.268051 0.000001 0.000001 -0.000001 0.182339 -0.506811 24.138626 -0.003077 0.019552 17.490238 -0.002676 0.018597 16.584051 -0.000001 -0.000000 0.000006 -8.441569 14.965426 11.314903 12.656869 1.100865 3.755547 -1.203422 1.444731 -8.842172 -4.933149 -0.000006 -0.000002 0.000000 0.000002 0.000000 7.176137 -9.878795 1.644863 4.195461 -8.573752 -2.622622 -6.444092 -3.156104 5.436027 -7.273479 0.000011 0.000003 -0.000000 0.000001 0.000000 
0.566202 94.736984 2.602889 -4.597543 -2.792792 -2.803431 5.136105 1.112375 2.009830 0.695300 0.206236 1.109029 0.679428 0.224045 1.107952 5.021575 -0.166464 1.112076 -6.396616 1.303014 -0.330662 0.000000 0.000000 -0.000000 -2.810277 -2.383340 -10.874418 5.381874 -9.121684 -68.194207 8.825807 -8.122869 1.357050 -19.193141 2.461137 -9.380734 -3.014902 -0.349302 4.605419 5.419531 11.445702 13.378929 3.072069 2.823820 -4.131263 -0.000001 -0.000004 -0.000003 -1.129452 0.152411 -31.080311 -0.004265 -0.026624 -23.867703 -0.003625 -0.022629 -20.186974 0.000003 -0.000001 -0.000004 -0.974224 -0.987965 -26.193822 -0.580636 -1.133497 -29.822197 -0.056080 1.218077 -19.943230 -0.000001 0.000000 0.000003 0.583313 2.442265 -20.463378 -0.025241 -4.859930 -24.567034 0.639444 1.500785 -21.410302 0.000000 -0.000000 0.000004 1.137671 -0.469251 -14.522831 -0.000356 -4.401619 -23.093826 0.494043 1.885179 -14.252011 -0.000000 0.000001 -0.000001 -6.959612 -3.819770 8.686419 15.260400 23.695572 62.880880 0.766270 23.010853 -2.647050 -10.890291 -8.972703 6.301396 -21.530527 9.164475 -2.941141 8.627443 -25.380057 -5.767571 -1.914995 -2.510023 -1.670500 -0.000000 0.000000 0.000002 2.664987 0.558152 9.092542 0.000513 4.401860 19.393226 0.534470 -1.876302 15.444641 0.000002 0.000001 -0.000003 1.820667 -4.838316 12.878755 -0.022538 4.851992 16.835134 0.584217 -1.525502 19.349952 -0.000000 -0.000001 -0.000009 2.080325 -2.467902 22.969467 -0.763276 1.181970 21.127749 -0.053555 -1.220897 16.790575 -0.000000 -0.000000 0.000000 2.809020 -4.148893 25.275682 -0.004853 0.021815 19.602891 -0.005287 0.024300 21.930827 -0.000003 -0.000003 0.000004 -8.578012 16.401772 11.015956 14.080555 -0.418871 4.161211 -1.920988 1.215102 -8.641519 -4.932997 -0.024953 -0.002676 0.000000 0.000001 -0.000000 7.137073 -9.815049 1.145864 6.660928 -9.018666 -2.713965 -8.045238 -3.305289 5.836756 -7.273474 0.000002 -0.000000 -0.000000 0.000001 -0.000000 
0.530639 94.345306 2.595548 -5.473673 -2.366462 -2.479174 7.261644 0.681080 1.753505 0.207865 0.084503 0.622175 0.199073 0.093201 0.621884 4.134061 -0.283217 1.769417 -4.995841 1.175039 -0.547723 0.000000 -0.000000 -0.000000 -1.289241 -5.399203 -13.478263 4.217130 1.469780 -65.496105 15.702236 -11.895341 1.052359 -10.521994 2.620692 -9.561577 -2.005850 -0.303585 1.993918 6.830383 11.692683 12.812365 11.563412 2.020633 -2.260334 0.000001 0.000001 -0.000001 -2.594258 0.135607 -38.518917 -0.006484 -0.033884 -30.682648 -0.004912 -0.026849 -24.034495 0.000001 0.000000 -0.000002 -1.748143 -0.917281 -34.921207 -0.665390 -1.090366 -34.229879 -0.060806 1.210885 -27.073632 -0.000000 -0.000000 0.000005 0.140127 1.559912 -29.428816 -0.028404 -4.867159 -31.626057 0.798947 1.415587 -27.629444 0.000002 -0.000002 0.000004 1.528921 -1.483877 -23.559155 -0.001057 -4.400120 -29.112233 0.737046 1.806290 -21.761343 0.000001 0.000002 -0.000003 -3.578270 -1.085724 10.073216 18.501287 22.809036 59.021727 0.793563 35.860136 -2.982007 -6.397126 -15.790964 1.461983 -31.815007 15.007814 -3.036170 13.594444 -34.558838 2.724430 3.829862 -7.203561 -4.850551 -0.000000 0.000000 0.000003 4.422383 0.894063 12.867562 0.000659 4.401455 21.599672 0.824757 -1.770558 24.498444 -0.000000 -0.000003 -0.000002 2.188444 -6.949149 14.138867 -0.016864 4.850587 15.677547 0.689298 -1.476396 23.357278 0.000001 0.000002 -0.000004 2.529795 -7.085266 28.763945 -1.003697 1.099325 15.985347 -0.055041 -1.216707 20.692482 -0.000002 0.000002 -0.000001 2.966212 -9.159518 26.542484 -0.006670 0.023934 21.651992 -0.008715 0.030196 27.750743 -0.000002 -0.000000 0.000002 -8.552981 17.761571 10.682967 15.264793 -1.830404 4.599191 -2.500103 0.933938 -8.430515 -4.932819 -0.053532 -0.005739 -0.000000 -0.000000 -0.000000 7.360530 -9.744175 0.664761 8.699369 -9.523194 -2.774566 -9.491692 -3.471917 6.234397 -7.273471 -0.000014 -0.000001 -0.000000 0.000001 -0.000000 
0.478732 93.967369 2.565856 -6.279319 -2.165740 -2.296228 8.960365 -0.163903 1.383006 -0.172012 -0.131933 0.189103 -0.175045 -0.129551 0.189681 3.354228 -0.160596 1.865787 -4.143627 1.220494 -0.093762 0.000000 -0.000000 0.000000 -0.254437 -8.465606 -15.311674 3.065573 9.957717 -62.656822 18.813502 -16.120635 1.044221 -3.323852 2.593442 -10.328866 -0.945629 -0.293247 -0.697950 8.285877 11.922410 12.208305 20.309581 1.110866 -0.718281 0.000006 0.000000 0.000002 -4.104001 0.521630 -46.214392 -0.009680 -0.041036 -37.726731 -0.006569 -0.031120 -28.011308 0.000001 0.000001 -0.000004 -2.531555 -0.619799 -43.939741 -0.749203 -1.039100 -38.785632 -0.066591 1.204123 -34.443681 0.000001 -0.000002 0.000003 -0.567798 0.875277 -38.706819 -0.032555 -4.874147 -38.922451 0.953076 1.309898 -34.057157 0.000002 -0.000003 0.000009 1.611574 -2.669451 -32.886613 -0.001612 -4.398537 -35.332985 0.975206 1.692131 -29.522260 -0.000000 0.000001 0.000001 -0.651821 1.657665 10.930175 19.981794 20.937030 56.677408 2.640382 49.065634 -4.596174 -3.359133 -22.236436 -4.615035 -41.223074 20.118320 -1.718292 19.164447 -42.691452 11.258839 11.037273 -10.753187 -7.172458 -0.000001 -0.000004 -0.000001 5.254052 0.741554 15.647163 0.000772 4.401141 23.315134 1.052741 -1.647621 32.086456 -0.000003 -0.000003 -0.000006 1.608928 -8.846384 14.617937 -0.016013 4.849255 14.573918 0.779828 -1.426564 26.927466 -0.000002 0.000002 -0.000004 0.797461 -11.127696 32.981628 -1.182176 0.963003 11.831848 -0.056506 -1.213287 23.932027 -0.000003 -0.000000 -0.000003 0.604857 -13.828954 27.098552 -0.008671 0.026109 23.812013 -0.012113 0.034962 32.744678 -0.000000 0.000000 0.000007 -8.583533 19.005433 10.597637 16.506605 -2.942821 5.028925 -3.138743 0.670860 -8.311047 -4.932746 -0.083089 -0.007926 0.000000 0.000002 0.000000 7.565390 -9.681512 0.365112 10.454186 -9.818960 -2.814131 -10.741714 -3.604459 6.507693 -7.273465 0.000011 -0.000002 -0.000000 -0.000002 -0.000000 
0.381355 93.587357 2.480692 -6.934708 -2.426908 -2.392356 9.656592 -1.500500 0.955083 -0.355927 -0.459803 -0.109129 -0.355224 -0.457326 -0.107964 3.015825 0.375424 1.399941 -3.663272 2.104079 0.547304 0.000000 -0.000000 0.000000 0.109012 -11.105291 -16.217787 3.848320 14.106369 -60.196035 14.884372 -20.526744 -0.320300 0.008714 1.828836 -9.668636 0.134067 -0.321495 -3.388694 9.741928 12.126082 11.584746 28.997315 0.003556 0.496985 -0.000001 -0.000000 -0.000003 -5.531513 1.314948 -53.923230 -0.013759 -0.047734 -44.790215 -0.008519 -0.035282 -31.999095 -0.000002 0.000002 -0.000002 -3.248765 -0.098628 -52.976545 -0.828894 -0.981174 -43.353717 -0.073199 1.198151 -41.834038 0.000001 0.000001 0.000005 -1.467778 0.474685 -48.021711 -0.037582 -4.880571 -46.239021 1.094754 1.187253 -40.501987 0.000002 -0.000001 0.000008 1.335909 -3.917334 -42.238634 -0.001967 -4.396915 -41.570854 1.196384 1.546436 -37.303563 -0.000001 0.000003 -0.000001 1.505651 4.250563 10.989062 20.386894 20.759443 54.949186 11.179593 63.451447 -13.160354 -2.184535 -28.326864 -9.857037 -46.526272 23.867843 -1.116630 23.027877 -46.748864 17.930703 20.788500 -12.108010 -8.783549 -0.000000 -0.000002 0.000001 4.875503 0.470233 15.610671 0.000800 4.401065 23.767354 1.160854 -1.574602 35.905898 -0.000002 0.000002 0.000002 0.419182 -9.801701 13.078345 -0.015705 4.848106 13.608055 0.839980 -1.389213 29.373437 -0.000001 0.000000 -0.000004 -1.196465 -13.464750 33.448235 -1.219511 0.875609 10.228342 -0.057251 -1.211703 25.467644 -0.000003 -0.000001 -0.000003 -1.879639 -16.817655 26.770329 -0.011023 0.028459 26.257182 -0.014262 0.037563 35.613559 -0.000001 -0.000004 0.000005 -8.816411 20.105278 10.988494 17.934209 -3.593702 5.420257 -3.948657 0.485475 -8.376326 -4.932713 -0.110651 -0.009477 -0.000000 0.000001 0.000000 7.542705 -9.650379 0.384265 11.949363 -9.665782 -2.834295 -11.705868 -3.643319 6.517497 -7.273480 0.000010 0.000002 -0.000001 0.000002 -0.000000 
0.226596 93.169327 2.351680 -7.468511 -3.027375 -2.664743 9.883415 -2.763057 0.341197 -0.433047 -0.724036 -0.340026 -0.429343 -0.716040 -0.339451 2.300926 0.912395 1.691303 -2.114448 3.792727 0.990126 0.000000 -0.000000 -0.000000 0.035876 -12.757673 -16.406174 5.978349 15.035234 -57.874925 8.834646 -24.497903 -2.338377 0.198441 1.299924 -9.218057 1.199518 -0.386927 -5.997768 11.154769 12.298063 10.961806 37.324907 -1.351458 1.449549 -0.000000 0.000001 -0.000001 -6.760987 2.457779 -61.406877 -0.018513 -0.053697 -51.663418 -0.010706 -0.039189 -35.879482 -0.000001 0.000000 -0.000002 -3.833310 0.606798 -61.761125 -0.901738 -0.918907 -47.798623 -0.080307 1.193187 -49.025322 -0.000001 0.000001 0.000003 -2.454128 0.397045 -57.091444 -0.043241 -4.886147 -53.358565 1.218546 1.053397 -46.772650 0.000001 -0.000000 0.000004 0.710300 -5.105596 -51.350124 -0.002135 -4.395356 -47.640686 1.390813 1.377218 -44.874138 -0.000005 0.000000 -0.000004 1.467895 6.586617 9.599345 21.979631 26.521947 52.254065 69.239301 72.239660 -74.432027 -2.991878 -32.489677 -12.899768 -43.567314 26.412147 -4.307185 21.137718 -43.444422 19.719009 34.931613 -10.996768 -10.395292 0.000001 -0.000001 0.000003 3.229118 0.030303 10.767334 0.000681 4.401407 21.844974 1.111893 -1.608984 34.154747 -0.000004 -0.000001 0.000001 -0.614282 -9.792653 8.193299 -0.015385 4.846732 12.502526 0.876471 -1.364755 30.890442 0.000001 0.000002 -0.000001 -1.251277 -14.405371 26.939347 -1.161963 0.853606 13.409421 -0.056910 -1.212411 24.789333 -0.000001 0.000003 -0.000003 -1.533683 -17.945161 26.233886 -0.015320 0.032303 30.495353 -0.014398 0.037712 35.784638 0.000004 0.000003 0.000006 -9.243807 21.103895 11.738516 19.527149 -3.950864 5.749489 -4.892488 0.384213 -8.568254 -4.932731 -0.133067 -0.010395 0.000001 0.000000 0.000000 7.255103 -9.642055 0.602900 13.427366 -9.190342 -2.843573 -12.548104 -3.611224 6.321460 -7.273470 -0.000009 -0.000001 -0.000000 -0.000001 -0.000000 
